<?xml version="1.0" standalone="no"?>
<!DOCTYPE svg PUBLIC "-//W3C//DTD SVG 1.1//EN" "http://www.w3.org/Graphics/SVG/1.1/DTD/svg11.dtd" >
<svg xmlns="http://www.w3.org/2000/svg">
<metadata>Generated by IcoMoon</metadata>
<defs>
<font id="icomoon" horiz-adv-x="1024">
<font-face units-per-em="1024" ascent="960" descent="-64" />
<missing-glyph horiz-adv-x="1024" />
<glyph unicode="&#x20;" horiz-adv-x="512" d="" />
<glyph unicode="&#xe900;" glyph-name="guard" d="M512-64c282.769 0 512 229.231 512 512s-229.231 512-512 512c-282.77 0-512-229.23-512-512s229.23-512 512-512zM513.391 746.667c68.331-64.207 149.133-93.327 254.609-93.327 0-16.064 0.329-32.797 0.67-50.006 3.2-161.913 7.232-366.073-255.279-454-262.491 87.927-258.458 292.083-255.26 453.996 0.34 17.211 0.671 33.944 0.671 50.010 105.466 0 186.267 29.121 254.589 93.327zM492.301 359.1l-84.822 81.98 37.978 36.698 46.844-45.278 89.033 86.042 37.978-36.698-127.010-122.743z" />
<glyph unicode="&#xe901;" glyph-name="print" d="M400 260.271v36.971h224v-36.971h-224zM400 186.313v36.979h224v-36.979h-224zM512-64c282.769 0 512 229.231 512 512 0 282.771-229.231 512-512 512s-512-229.229-512-512c0-282.769 229.231-512 512-512zM661.333 519.113h-298.667v184.887h298.667v-184.887zM362.667 334.221h298.667v-184.887h-298.667v184.887zM698.667 593.062h37.333c37.333 0 74.667-36.969 74.667-73.95v-184.892c0-36.979-37.333-73.95-74.667-73.95h-37.333v110.929h-373.333v-110.929h-37.333c-37.333 0-74.667 36.971-74.667 73.95v184.892c0 36.981 37.333 73.95 74.667 73.95h37.333v-110.929h373.333v110.929z" />
<glyph unicode="&#xe902;" glyph-name="marker" d="M404.668 530.334c0-60.011 48.149-108.843 107.332-108.843s107.332 48.832 107.332 108.843c0 60.020-48.149 108.843-107.332 108.843s-107.332-48.823-107.332-108.843zM512-64c282.769 0 512 229.231 512 512 0 282.771-229.231 512-512 512s-512-229.229-512-512c0-282.769 229.231-512 512-512zM298.667 530.334c0 119.291 95.7 216.333 213.333 216.333s213.329-97.041 213.333-216.333c0-148.032-190.912-365.355-199.040-374.541-7.62-8.606-20.949-8.614-28.587 0-8.128 9.186-199.040 226.509-199.040 374.541z" />
<glyph unicode="&#xe903;" glyph-name="phone" d="M512.004 148.301c22.089 0 39.996 17.907 39.996 39.996s-17.907 39.996-39.996 39.996c-22.093 0-40-17.907-40-39.996s17.907-39.996 40-39.996zM623.586 727.047h-223.172c-12.51 0-22.688-9.704-22.688-21.61v-421.862c0-11.917 10.172-21.611 22.688-21.611h223.172c12.51 0 22.69 9.707 22.69 21.611v421.862c-0.009 11.916-10.18 21.61-22.69 21.61zM511.987 960c-282.76 0-511.987-229.243-511.987-511.991 0-282.743 229.228-512.009 511.987-512.009 282.756 0 512.013 229.248 512.013 512.009s-229.257 511.991-512.013 511.991zM711.185 195.341c0-39.108-31.714-70.822-70.827-70.822h-256.731c-39.11 0-70.824 31.71-70.824 70.822v507.557c0 39.11 31.71 70.823 70.824 70.823h256.731c39.113 0 70.827-31.71 70.827-70.823v-507.557z" />
<glyph unicode="&#xe904;" glyph-name="facebook" horiz-adv-x="455" d="M98.37 761.684c0-25.805 0-140.984 0-140.984h-98.37v-172.397h98.37v-512.303h202.072v512.288h135.6c0 0 12.699 82.663 18.855 173.047-17.649 0-153.691 0-153.691 0s0 100.295 0 117.874c0 17.618 22.032 41.316 43.808 41.316 21.735 0 67.608 0 110.096 0 0 23.472 0 104.573 0 179.475-56.72 0-121.25 0-149.694 0-212.043 0.012-207.047-172.556-207.047-198.316z" />
<glyph unicode="&#xe905;" glyph-name="arrow" horiz-adv-x="576" d="M557.255 402.745c24.993 24.994 24.993 65.516 0 90.51l-407.293 407.293c-24.994 24.994-65.516 24.994-90.51 0s-24.994-65.516 0-90.51l362.039-362.038-362.039-362.042c-24.994-24.992-24.994-65.51 0-90.509 24.994-24.992 65.516-24.992 90.51 0l407.293 407.295zM480 384h32v128h-32v-128z" />
<glyph unicode="&#xe906;" glyph-name="twitter" horiz-adv-x="1243" d="M1243.429 838.845c-45.765-20.56-94.874-34.503-146.461-40.727 52.677 31.983 93.001 82.714 112.113 142.977-49.415-29.619-103.958-51.126-162.077-62.785-46.541 50.337-112.742 81.69-186.171 81.69-140.87 0-255.089-115.8-255.089-258.54 0-20.244 2.254-40.017 6.606-58.925-211.964 10.794-399.92 113.752-525.715 270.201-21.99-38.128-34.499-82.555-34.499-129.98 0-89.726 45.066-168.895 113.442-215.213-41.803 1.418-81.119 13.076-115.539 32.456v-3.23c0-125.253 87.956-229.786 204.583-253.578-21.367-5.829-43.9-9.059-67.21-9.059-16.471 0-32.4 1.654-48.018 4.806 32.478-102.802 126.651-177.562 238.229-179.61-87.258-69.317-197.281-110.519-316.783-110.519-20.59 0-40.871 1.258-60.839 3.54 112.898-73.494 246.931-116.348 390.986-116.348 469.225 0 725.715 394.034 725.715 735.761l-0.856 33.479c50.117 36.239 93.469 81.77 127.583 133.605z" />
<glyph unicode="&#xe907;" glyph-name="search" d="M1008.429 27.296l-252.429 253.478c64.902 74.489 100.467 168.214 100.467 265.786 0 227.967-192.109 413.439-428.235 413.439-236.124 0-428.232-185.473-428.232-413.439 0-227.969 192.109-413.441 428.232-413.441 88.644 0 173.117 25.811 245.342 74.816l254.349-255.398c10.63-10.662 24.928-16.538 40.256-16.538 14.502 0 28.262 5.338 38.707 15.046 22.195 20.614 22.899 54.81 1.542 76.25zM428.232 852.146c174.532 0 316.516-137.082 316.516-305.585s-141.984-305.588-316.516-305.588c-174.532 0-316.52 137.084-316.52 305.588s141.987 305.585 316.52 305.585z" />
<glyph unicode="&#xe908;" glyph-name="long-arrow" horiz-adv-x="3328" d="M3245.261 402.746c24.986 24.993 24.986 65.516 0 90.509l-407.296 407.294c-24.998 24.994-65.523 24.994-90.509 0-24.998-24.994-24.998-65.516 0-90.509l362.035-362.039-362.035-362.039c-24.998-24.993-24.998-65.516 0-90.509 24.986-24.995 65.51-24.995 90.509 0l407.296 407.293zM0 384h3200v128h-3200v-128z" />
<glyph unicode="&#xe909;" glyph-name="blog" horiz-adv-x="1047" d="M1020.358 876.043c-14.925 0-27.136-12.22-27.136-27.156v-720.76c0-76.262-61.964-138.042-137.947-138.042h-663.053c-76.21 0-137.947 62.006-137.947 138.042v777.56h794.442v-699.262c0-14.936 12.211-27.157 27.136-27.157s27.138 12.221 27.138 27.157v726.417c0 14.936-12.214 27.156-27.138 27.156h-848.716c-14.925 0-27.137-12.22-27.137-27.156v-804.49c0-106.133 86.161-192.354 192.222-192.354h662.825c106.063 0 192.223 86.221 192.223 192.354v720.534c0.226 14.936-11.985 27.156-26.913 27.156zM744.69 702.545c14.925 0 27.136 12.218 27.136 27.155s-12.211 27.156-27.136 27.156h-591.591c-14.925 0-27.137-12.22-27.137-27.156s12.212-27.155 27.137-27.155h591.591zM744.69 203.329h-591.591c-14.925 0-27.137-12.218-27.137-27.155s12.212-27.157 27.137-27.157h591.365c14.925 0 27.136 12.221 27.136 27.157s-11.985 27.155-26.91 27.155zM116.916 607.725v-293.734c0-14.936 12.212-27.157 27.137-27.157h294.666c14.925 0 27.136 12.221 27.136 27.157v293.734c0 14.936-12.211 27.157-27.136 27.157h-294.666c-14.925 0-27.137-12.221-27.137-27.157zM171.19 580.571h240.39v-239.425h-240.39v239.425zM759.163 607.725h-195.163c-14.925 0-27.136-12.221-27.136-27.155 0-14.936 12.211-27.157 27.136-27.157h195.163c14.925 0 27.136 12.221 27.136 27.157 0 14.934-11.985 27.155-27.136 27.155zM759.163 485.071h-195.163c-14.925 0-27.136-12.221-27.136-27.155 0-14.936 12.211-27.157 27.136-27.157h195.163c14.925 0 27.136 12.221 27.136 27.157 0 14.934-11.985 27.155-27.136 27.155zM786.299 327.568c0 14.936-12.211 27.155-27.136 27.155h-195.163c-14.925 0-27.136-12.218-27.136-27.155s12.211-27.157 27.136-27.157h195.163c15.151 0 27.136 12.221 27.136 27.157z" />
<glyph unicode="&#xe90a;" glyph-name="conference" d="M472.139 246.172c-3.718 3.74-8.879 5.86-14.138 5.86-5.261 0-10.421-2.121-14.142-5.86-3.718-3.721-5.86-8.86-5.86-14.14 0-5.261 2.14-10.421 5.86-14.142 3.721-3.718 8.881-5.86 14.142-5.86 5.259 0 10.419 2.142 14.138 5.86 3.718 3.721 5.86 8.881 5.86 14.142s-2.14 10.419-5.86 14.14zM896 423.979c-11.044 0-20-8.954-20-20v-87.962h-344v49.367c0 76.055-57.188 138.961-130.81 148.085 14.549 17.958 23.292 40.804 23.292 65.666v140.704c0 11.046-8.956 20.002-20 20.002h-104.644c-46.492 0-84.316-37.826-84.316-84.32v-76.386c0-24.86 8.74-47.708 23.292-65.666-73.626-9.126-130.814-72.032-130.814-148.087v-49.367h-68v480.511c0 8.552 7.002 15.508 15.61 15.508h415.724c11.044 0 20 8.954 20 20.001s-8.956 20.001-20 20.001h-415.724c-30.662 0-55.61-24.901-55.61-55.51v-593.008c0-30.609 24.948-55.509 55.61-55.509h304.349v-92.393c-50.453-5.109-89.961-47.836-89.961-99.616 0-11.046 8.958-20 20.002-20h336c11.042 0 19.998 8.954 19.998 20 0 51.778-39.505 94.505-89.956 99.616v92.393h304.35c30.662 0 55.61 24.9 55.61 55.509v200.461c-0.002 11.044-8.958 20-20.002 20zM255.52 655.518c0 24.437 19.881 44.318 44.316 44.318h84.644v-31.934c0-15.863-12.907-28.77-28.772-28.77h-100.188v16.386zM255.52 599.13h100.19c10.27 0 20.013 2.278 28.772 6.332v-26.33c0-35.556-28.928-64.482-64.482-64.482s-64.48 28.926-64.48 64.482v19.998zM343.339 474.647l-23.339-23.339-23.339 23.339h46.677zM148 365.382c0 54.816 40.58 100.322 93.271 108.085l64.585-64.587c3.906-3.906 9.024-5.858 14.142-5.858s10.236 1.952 14.142 5.858l64.585 64.587c52.695-7.763 93.276-53.269 93.276-108.085v-49.367h-344v49.367zM602.577-23.998h-289.158c8.26 23.351 30.558 40.128 56.706 40.128h175.748c26.146 0 48.446-16.774 56.704-40.128zM399.959 56.13v91.878h116.083v-91.878h-116.083zM876 203.518c0-8.55-7.002-15.507-15.61-15.507h-804.78c-8.608 0-15.61 6.957-15.61 15.507v72.495h836v-72.495zM910.138 493.461c-3.718 3.721-8.877 5.86-14.138 5.86s-10.419-2.14-14.14-5.86c-3.721-3.74-5.86-8.879-5.86-14.14 0-5.28 2.138-10.421 5.86-14.142 3.721-3.74 8.879-5.86 14.14-5.86s10.419 2.121 14.138 5.86c3.721 3.721 5.862 8.862 5.862 14.142 0 5.261-2.14 10.419-5.862 14.14zM896 865.996h-149.999c-11.044 0-20.002-8.954-20.002-20.001s8.958-20.001 20.002-20.001h149.999c11.044 0 20 8.954 20 20.001s-8.956 20.001-20 20.001zM678.138 860.136c-3.718 3.72-8.877 5.86-14.138 5.86s-10.419-2.14-14.14-5.86c-3.721-3.72-5.86-8.88-5.86-14.141s2.138-10.42 5.86-14.141c3.723-3.72 8.879-5.86 14.14-5.86s10.419 2.14 14.138 5.86c3.721 3.72 5.862 8.88 5.862 14.141s-2.14 10.42-5.862 14.141zM896 777.993h-232c-11.044 0-20-8.954-20-20.001s8.956-20.002 20-20.002h232c11.044 0 20 8.955 20 20.002s-8.956 20.001-20 20.001zM896 689.99h-232c-11.044 0-20-8.956-20-20.002s8.956-20 20-20h232c11.044 0 20 8.954 20 20s-8.956 20.002-20 20.002zM924 960h-288c-55.14 0-100-44.862-100-100.004v-214.008c0-51.313 38.839-93.722 88.666-99.366v-51.972c0-8.087 4.875-15.381 12.346-18.479 2.475-1.026 5.075-1.523 7.65-1.523 5.207 0 10.321 2.033 14.146 5.858l65.474 65.478h199.718c55.14 0 100 44.862 100 100.004v214.008c0 55.142-44.86 100.004-100 100.004zM984 645.988c0-33.086-26.916-60.002-60-60.002h-208c-5.303 0-10.389-2.11-14.142-5.858l-37.193-37.195v23.051c0 11.046-8.956 20.002-20 20.002h-8.666c-33.084 0-60 26.916-60 60.002v214.008c0 33.085 26.916 60.002 60 60.002h288c33.084 0 60-26.917 60-60.002v-214.008z" />
<glyph unicode="&#xe90b;" glyph-name="podcast" horiz-adv-x="1291" d="M22.261 960h1246.609c12.288 0 22.261-9.951 22.261-22.261v-890.435c0-12.295-9.966-22.261-22.261-22.261s-22.261 9.966-22.261 22.261v133.565h-178.087v-133.565c0-12.295-9.966-22.261-22.261-22.261s-22.261 9.966-22.261 22.261v868.174h-1001.739c-12.294 0-22.261 9.967-22.261 22.261 0 12.31 9.973 22.261 22.261 22.261zM1068.522 470.261h178.087v200.348h-178.087v-200.348zM1246.609 425.739h-178.087v-200.348h178.087v200.348zM1246.609 715.13v200.348h-178.087v-200.348h178.087zM22.261 870.957c12.294 0 22.261-9.967 22.261-22.261v-133.565h178.087v133.565c0 12.294 9.966 22.261 22.261 22.261s22.261-9.966 22.261-22.261v-868.174h1001.739c12.295 0 22.261-9.966 22.261-22.261 0-12.31-9.973-22.261-22.261-22.261h-1246.609c-12.288 0-22.261 9.951-22.261 22.261v890.435c0 12.294 9.967 22.261 22.261 22.261zM44.522 470.261h178.087v200.348h-178.087v-200.348zM222.609 425.739h-178.087v-200.348h178.087v200.348zM44.522 180.87v-200.348h178.087v200.348h-178.087zM568.476 622.614l244.87-155.826c6.411-4.096 10.307-11.175 10.307-18.788s-3.896-14.692-10.307-18.788l-244.87-155.826c-3.629-2.293-7.791-3.473-11.954-3.473-3.695 0-7.368 0.913-10.707 2.738-7.123 3.918-11.553 11.398-11.553 19.523v311.652c0 8.125 4.43 15.605 11.531 19.523 7.146 3.896 15.827 3.606 22.684-0.735zM759.919 448l-181.137 115.289v-230.578l181.137 115.289z" />
<glyph unicode="&#xe90c;" horiz-adv-x="1179" d="M1098.421 73.307c0 48.811-31.387 91.984-78.469 107.627-28.88 9.387-59.643 6.885-86.635-6.88-26.997-13.765-47.083-36.917-56.501-65.701-3.765-11.264-5.648-23.157-5.648-35.669 0-48.811 31.387-91.984 78.469-107.627 28.251-9.387 59.637-6.885 86.635 6.88 26.992 13.771 47.083 36.923 56.501 65.707 3.765 11.264 5.648 23.152 5.648 35.664z" />
<glyph unicode="&#xe90d;" horiz-adv-x="1179" d="M594.811 253.291c0 61.371-39.435 115.659-98.586 135.328-36.28 11.803-74.926 8.656-108.841-8.656-33.914-17.307-59.153-46.421-70.983-82.608-4.732-14.165-7.098-29.115-7.098-44.848 0-61.371 39.435-115.653 98.588-135.323 35.492-11.803 74.927-8.656 108.841 8.651 33.914 17.312 59.151 46.421 70.981 82.613 4.736 14.16 7.099 29.109 7.099 44.843z" />
<glyph unicode="&#xe90e;" horiz-adv-x="1179" d="M1034.976 667.892c0 94.609-60.8 178.302-151.989 208.626-55.936 18.194-115.515 13.342-167.797-13.342-52.288-26.685-91.195-71.563-109.435-127.358-7.296-21.833-10.944-44.879-10.944-69.138 0-94.61 60.8-178.302 151.989-208.626 54.72-18.194 115.515-13.342 167.797 13.342 52.288 26.684 91.195 71.563 109.435 127.358 7.296 21.833 10.944 44.879 10.944 69.138z" />
<glyph unicode="&#xe90f;" horiz-adv-x="1179" d="M138.791 465.241c0 29.831-19.17 56.221-47.924 65.782-17.636 5.737-36.423 4.207-52.909-4.207s-28.755-22.565-34.506-40.158c-2.3-6.884-3.451-14.151-3.451-21.8 0-29.832 19.17-56.223 47.925-65.781 17.253-5.739 36.423-4.208 52.909 4.203 16.486 8.416 28.755 22.565 34.506 40.16 2.3 6.884 3.45 14.151 3.45 21.801z" />
<glyph unicode="&#xe910;" horiz-adv-x="1179" d="M1376 565.262c0 18.147-9.419 33.79-25.109 43.176-15.696 8.761-33.904 8.761-49.595 0l-402.411-231.526 477.115-274.699v463.049z" />
<glyph unicode="&#xe911;" horiz-adv-x="1179" d="M547.227 910.253c0 18.146-9.413 33.79-25.109 43.176-15.694 8.76-33.9 8.76-49.595 0l-402.406-231.524 477.109-274.7v463.048z" />
<glyph unicode="&#xe912;" horiz-adv-x="1179" d="M812.912 86.443c0 5.755-2.976 10.709-7.931 13.685-4.96 2.779-10.709 2.779-15.664 0l-127.093-73.403 150.688-87.093v146.811z" />
<glyph unicode="&#xe913;" horiz-adv-x="1179" d="M642.395 132.101c0-12.347 6.421-22.997 17.115-29.381 10.699-5.963 23.104-5.963 33.803 0l274.251 157.552-325.168 186.933v-315.104z" />
<glyph unicode="&#xe914;" horiz-adv-x="1179" d="M367.934 441.853c6.097 3.52 9.523 9.723 9.627 16.825-0.106 6.98-3.642 13.106-9.634 16.687l-155.957 90.491 0.395-213.818 155.569 89.815z" />
<glyph unicode="&#xe915;" horiz-adv-x="555" d="M236.228 126.444c-28.266 10.716-46.378 38.374-45.099 69.077 0.905 18.785 9.109 36.048 23.009 48.66s31.719 19.162 50.456 18.293c7.35-0.291 14.649-1.81 21.896-4.558 28.266-10.719 46.378-38.377 45.1-69.080-0.77-18.419-9.11-36.048-23.010-48.66-13.9-12.608-31.719-19.159-50.456-18.293-7.35 0.294-14.648 1.813-21.896 4.562z" />
<glyph unicode="&#xe916;" horiz-adv-x="555" d="M242.577 457.616c-35.54 13.474-58.32 48.234-56.722 86.809 1.132 23.602 11.44 45.294 28.911 61.133s39.871 24.064 63.428 22.967c9.241-0.367 18.417-2.279 27.53-5.734 35.539-13.477 58.321-48.234 56.722-86.809-0.958-23.146-11.439-45.294-28.91-61.133s-39.873-24.064-63.43-22.971c-9.241 0.37-18.417 2.283-27.53 5.738z" />
<glyph unicode="&#xe917;" horiz-adv-x="555" d="M-94.178 293.746c-54.791 20.774-89.91 74.359-87.447 133.83 1.745 36.385 17.637 69.824 44.571 94.244s61.468 37.099 97.786 35.411c14.246-0.568 28.393-3.518 42.442-8.843 54.791-20.774 89.91-74.362 87.447-133.833-1.478-35.681-17.637-69.824-44.571-94.244s-61.469-37.099-97.786-35.411c-14.246 0.571-28.393 3.518-42.442 8.846z" />
<glyph unicode="&#xe918;" horiz-adv-x="555" d="M219.965 768.249c-17.276 6.55-28.35 23.447-27.573 42.199 0.55 11.473 5.561 22.017 14.054 29.717s19.382 11.698 30.833 11.165c4.492-0.179 8.953-1.109 13.383-2.789 17.276-6.55 28.35-23.447 27.573-42.199-0.466-11.251-5.561-22.017-14.054-29.717s-19.382-11.698-30.833-11.165c-4.492 0.179-8.953 1.109-13.383 2.789z" />
<glyph unicode="&#xe919;" horiz-adv-x="555" d="M-109.624 73.711c-10.509 3.987-17.501 12.873-19.49 24.024-1.627 11.013 2.37 21.557 10.89 28.722l222.442 182.206 54.322-336.625-268.163 101.673z" />
<glyph unicode="&#xe91a;" horiz-adv-x="555" d="M-127.437 629.43c-10.509 3.983-17.501 12.871-19.49 24.021-1.627 11.013 2.37 21.556 10.89 28.722l222.441 182.206 54.322-336.625-268.163 101.677z" />
<glyph unicode="&#xe91b;" horiz-adv-x="555" d="M291.314 294.674c-3.332 1.262-5.551 4.073-6.186 7.597-0.52 3.482 0.743 6.811 3.439 9.071l70.418 57.486 17.352-106.39-85.022 32.236z" />
<glyph unicode="&#xe91c;" horiz-adv-x="555" d="M302.314 403.446c7.151-2.712 11.907-8.763 13.257-16.361 1.104-7.505-1.621-14.689-7.422-19.575l-151.462-124.231-36.858 229.356 182.485-69.189z" />
<glyph unicode="&#xe91d;" horiz-adv-x="555" d="M183.196 630.412c-3.377-2.759-7.722-3.38-11.857-1.881-4.019 1.593-6.79 4.986-7.549 9.243l-18.16 110.189 123.741-47.179-86.176-70.372z" />
<glyph unicode="&#xe91e;" horiz-adv-x="565" d="M265.645 130.79c30.293 8.116 51.871 34.78 53.75 66.602 1.024 19.486-5.646 38.163-18.68 52.626-13.033 14.466-30.744 23.084-50.175 24.141-7.617 0.465-15.31-0.341-23.077-2.423-30.293-8.12-51.871-34.78-53.75-66.605-1.128-19.094 5.646-38.16 18.68-52.626s30.744-23.084 50.176-24.141c7.617-0.465 15.309 0.344 23.077 2.426z" />
<glyph unicode="&#xe91f;" horiz-adv-x="565" d="M293.599 473.292c38.089 10.207 65.224 43.712 67.595 83.696 1.293 24.479-7.089 47.944-23.473 66.113-16.381 18.172-38.647 28.995-63.077 30.318-9.577 0.583-19.248-0.435-29.015-3.051-38.089-10.207-65.225-43.712-67.595-83.696-1.422-23.99 7.089-47.944 23.473-66.113 16.383-18.172 38.648-28.995 63.078-30.318 9.577-0.583 19.248 0.435 29.015 3.051z" />
<glyph unicode="&#xe920;" horiz-adv-x="565" d="M624.126 269.051c58.718 15.735 100.554 67.388 104.209 129.030 1.991 37.74-10.929 73.912-36.187 101.926s-59.582 44.7-97.247 46.742c-14.765 0.897-29.675-0.674-44.73-4.706-58.721-15.735-100.554-67.388-104.209-129.030-2.193-36.988 10.929-73.912 36.187-101.926 25.256-28.013 59.582-44.7 97.244-46.742 14.765-0.897 29.675 0.674 44.733 4.706z" />
<glyph unicode="&#xe921;" horiz-adv-x="565" d="M349.308 791.577c18.514 4.961 31.705 21.248 32.859 40.685 0.628 11.9-3.447 23.306-11.409 32.139-7.965 8.833-18.788 14.094-30.666 14.738-4.655 0.283-9.355-0.212-14.103-1.484-18.517-4.961-31.706-21.248-32.859-40.685-0.691-11.662 3.446-23.306 11.409-32.139 7.965-8.833 18.788-14.094 30.666-14.738 4.655-0.283 9.355 0.212 14.103 1.484z" />
<glyph unicode="&#xe922;" horiz-adv-x="565" d="M617.146 40.321c11.264 3.018 19.408 11.463 22.622 22.767 2.827 11.198-0.199 22.498-8.246 30.78l-210.621 211.255-91.151-341.811 287.397 77.008z" />
<glyph unicode="&#xe923;" horiz-adv-x="565" d="M693.435 612.082c11.264 3.021 19.405 11.466 22.622 22.767 2.827 11.198-0.199 22.498-8.249 30.782l-210.621 211.255-91.148-341.809 287.397 77.005z" />
<glyph unicode="&#xe924;" horiz-adv-x="565" d="M226.311 310.18c3.571 0.955 6.155 3.628 7.177 7.198 0.9 3.537-0.057 7.108-2.605 9.72l-66.696 66.675-28.996-108.009 91.119 24.416z" />
<glyph unicode="&#xe925;" horiz-adv-x="565" d="M226.294 423.602c-7.664-2.054-13.204-7.805-15.39-15.508-1.921-7.63 0.142-15.33 5.621-20.978l143.397-144.015 61.944 232.907-195.573-52.405z" />
<glyph unicode="&#xe926;" horiz-adv-x="565" d="M372.899 645.466c3.199-3.196 7.618-4.292 12.043-3.175 4.313 1.226 7.527 4.437 8.754 8.754l30.228 111.846-132.644-35.805 81.619-81.62z" />
<glyph unicode="&#xe927;" horiz-adv-x="640" d="M93.594 121.76c25.277 14.83 38.102 44.203 31.9 73.337-3.912 17.81-14.553 32.978-29.884 42.777s-33.424 13.17-51.191 9.301c-6.977-1.472-13.707-4.107-20.188-7.911-25.277-14.827-38.102-44.199-31.9-73.337 3.721-17.483 14.553-32.978 29.884-42.773 15.33-9.799 33.424-13.17 51.192-9.301 6.977 1.468 13.707 4.107 20.188 7.908z" />
<glyph unicode="&#xe928;" horiz-adv-x="640" d="M33.813 437.255c31.782 18.645 47.917 55.559 40.133 92.171-4.91 22.375-18.281 41.433-37.548 53.739s-42.011 16.533-64.348 11.666c-8.772-1.852-17.233-5.17-25.382-9.948-31.782-18.645-47.917-55.559-40.133-92.171 4.67-21.966 18.28-41.433 37.547-53.739s42.011-16.533 64.348-11.666c8.772 1.852 17.233 5.17 25.382 9.948z" />
<glyph unicode="&#xe929;" horiz-adv-x="640" d="M382.247 335.253c48.999 28.743 73.874 85.653 61.874 142.094-7.57 34.492-28.181 63.876-57.884 82.848-29.707 18.969-64.768 25.486-99.205 17.98-13.524-2.852-26.567-7.964-39.13-15.335-48.998-28.743-73.872-85.653-61.872-142.094 7.2-33.863 28.182-63.876 57.886-82.848 29.704-18.969 64.767-25.486 99.204-17.98 13.525 2.852 26.567 7.964 39.129 15.335z" />
<glyph unicode="&#xe92a;" horiz-adv-x="640" d="M5.040 737.815c15.45 9.063 23.293 27.008 19.509 44.804-2.387 10.876-8.886 20.141-18.252 26.123s-20.422 8.037-31.28 5.67c-4.264-0.9-8.377-2.512-12.338-4.836-15.45-9.063-23.293-27.008-19.509-44.804 2.27-10.678 8.886-20.141 18.252-26.123s20.422-8.037 31.28-5.67c4.264 0.9 8.377 2.512 12.338 4.836z" />
<glyph unicode="&#xe92b;" horiz-adv-x="640" d="M432.7 127.46c9.397 5.511 14.638 15.143 14.731 26.123-0.231 10.788-5.76 20.217-15.065 25.682l-242.155 138.069 2.68-330.546 239.81 140.672z" />
<glyph unicode="&#xe92c;" horiz-adv-x="640" d="M359.591 661.483c9.397 5.513 14.638 15.142 14.731 26.122-0.231 10.789-5.76 20.218-15.065 25.685l-242.155 138.067 2.68-330.545 239.81 140.672z" />
<glyph unicode="&#xe92d;" horiz-adv-x="640" d="M13.659 273.614c2.98 1.749 4.645 4.796 4.68 8.267-0.067 3.41-1.814 6.389-4.758 8.114l-76.626 43.516 0.672-104.498 76.032 44.601z" />
<glyph unicode="&#xe92e;" horiz-adv-x="640" d="M-14.496 375.794c-6.395-3.751-9.959-10.311-10.017-17.788 0.162-7.353 3.931-13.778 10.268-17.508l164.911-94.165-1.972 225.188-163.19-95.726z" />
<glyph unicode="&#xe92f;" horiz-adv-x="640" d="M62.541 612.039c3.675-2.088 7.929-1.978 11.638 0.125 3.583 2.175 5.681 5.868 5.715 10.059l-0.515 108.26-110.616-65.162 93.777-53.281z" />
<glyph unicode="&#xe930;" horiz-adv-x="1065" d="M661.291 794.656c15.853-27.455 12.217-61.936-9.186-86.027-13.196-14.659-31.314-23.241-50.968-24.264s-38.475 5.476-53.121 18.609c-5.778 5.113-10.696 11.189-14.762 18.229-15.85 27.455-12.217 61.936 9.19 86.027 12.841 14.454 31.31 23.241 50.968 24.264 19.654 1.023 38.475-5.476 53.117-18.61 5.778-5.113 10.7-11.189 14.762-18.228z" />
<glyph unicode="&#xe931;" horiz-adv-x="1065" d="M436.456 529.856c19.931-34.521 15.379-77.865-11.507-108.14-16.575-18.421-39.338-29.203-64.035-30.481-24.699-1.278-48.35 6.903-66.758 23.417-7.261 6.428-13.447 14.071-18.558 22.92-19.93 34.521-15.378 77.865 11.508 108.14 16.132 18.167 39.337 29.203 64.035 30.481 24.7 1.278 48.35-6.903 66.759-23.417 7.261-6.428 13.447-14.071 18.555-22.92z" />
<glyph unicode="&#xe932;" horiz-adv-x="1065" d="M818.703 439.588c30.724-53.218 23.705-120.043-17.744-166.718-25.551-28.399-60.644-45.019-98.719-46.988-38.079-1.97-74.539 10.64-102.919 36.102-11.197 9.911-20.73 21.691-28.608 35.335-30.727 53.218-23.709 120.043 17.741 166.718 24.868 28.003 60.644 45.019 98.719 46.988 38.079 1.97 74.539-10.636 102.919-36.102 11.197-9.911 20.73-21.691 28.612-35.335z" />
<glyph unicode="&#xe933;" horiz-adv-x="1065" d="M248.771 262.529c9.688-16.78 7.476-37.851-5.594-52.568-8.057-8.954-19.122-14.194-31.128-14.818-12.006-0.62-23.503 3.356-32.452 11.384-3.53 3.128-6.537 6.839-9.021 11.144-9.689 16.78-7.476 37.851 5.594 52.568 7.842 8.831 19.122 14.194 31.128 14.814 12.006 0.624 23.503-3.352 32.452-11.38 3.53-3.128 6.537-6.843 9.021-11.144z" />
<glyph unicode="&#xe934;" horiz-adv-x="1065" d="M977.21 608.072c5.89-10.207 5.677-22.064-0.105-32.442-5.983-10.027-16.223-15.939-27.898-16.107l-301.549-0.452 179.166 309.473 150.386-260.472z" />
<glyph unicode="&#xe935;" horiz-adv-x="1065" d="M623.052 144.851c5.894-10.206 5.677-22.065-0.105-32.443-5.983-10.027-16.223-15.939-27.898-16.107l-301.549-0.452 179.17 309.472 150.382-260.47z" />
<glyph unicode="&#xe936;" horiz-adv-x="1065" d="M504.952 694.543c1.869-3.236 1.809-6.992-0.015-10.276-1.884-3.172-5.12-5.039-8.809-5.087l-95.333 0.016 56.477 97.93 47.68-82.583z" />
<glyph unicode="&#xe937;" horiz-adv-x="1065" d="M423.865 613.482c-4.010 6.946-3.857 15.019 0.086 22.086 4.081 6.827 11.058 10.857 19.011 10.977l205.439 0.442-122.2-210.755-102.336 177.25z" />
<glyph unicode="&#xe938;" horiz-adv-x="1065" d="M370.074 350.103c4.572 0 8.515-2.377 10.88-6.335 2.209-3.961 2.209-8.558 0-12.516l-58.34-101.555-69.22 120.406h116.68z" />
<glyph unicode="&#xe939;" horiz-adv-x="1088" d="M1098.421 73.307c0 48.811-31.387 91.984-78.469 107.627-28.88 9.387-59.643 6.885-86.635-6.88-26.997-13.765-47.083-36.917-56.501-65.701-3.765-11.264-5.648-23.157-5.648-35.669 0-48.811 31.387-91.984 78.469-107.627 28.251-9.387 59.637-6.885 86.635 6.88 26.992 13.771 47.083 36.923 56.501 65.707 3.765 11.264 5.648 23.152 5.648 35.664z" />
<glyph unicode="&#xe93a;" horiz-adv-x="1088" d="M594.811 253.291c0 61.371-39.435 115.659-98.586 135.328-36.28 11.803-74.926 8.656-108.841-8.656-33.914-17.307-59.153-46.421-70.983-82.608-4.732-14.165-7.098-29.115-7.098-44.848 0-61.371 39.435-115.653 98.588-135.323 35.492-11.803 74.927-8.656 108.841 8.651 33.914 17.312 59.151 46.421 70.981 82.613 4.736 14.16 7.099 29.109 7.099 44.843z" />
<glyph unicode="&#xe93b;" horiz-adv-x="1088" d="M1034.976 667.892c0 94.609-60.8 178.302-151.989 208.626-55.936 18.194-115.515 13.342-167.797-13.342-52.288-26.685-91.195-71.563-109.435-127.358-7.296-21.833-10.944-44.879-10.944-69.138 0-94.61 60.8-178.302 151.989-208.626 54.72-18.194 115.515-13.342 167.797 13.342 52.288 26.684 91.195 71.563 109.435 127.358 7.296 21.833 10.944 44.879 10.944 69.138z" />
<glyph unicode="&#xe93c;" horiz-adv-x="1088" d="M138.791 465.241c0 29.831-19.17 56.221-47.924 65.782-17.636 5.737-36.423 4.207-52.909-4.207s-28.755-22.565-34.506-40.158c-2.3-6.884-3.451-14.151-3.451-21.8 0-29.832 19.17-56.223 47.925-65.781 17.253-5.739 36.423-4.208 52.909 4.203 16.486 8.416 28.755 22.565 34.506 40.16 2.3 6.884 3.45 14.151 3.45 21.801z" />
<glyph unicode="&#xe93d;" horiz-adv-x="1088" d="M1376 565.262c0 18.147-9.419 33.79-25.109 43.176-15.696 8.761-33.904 8.761-49.595 0l-402.411-231.526 477.115-274.699v463.049z" />
<glyph unicode="&#xe93e;" horiz-adv-x="1088" d="M547.227 910.253c0 18.146-9.413 33.79-25.109 43.176-15.694 8.76-33.9 8.76-49.595 0l-402.406-231.524 477.109-274.7v463.048z" />
<glyph unicode="&#xe93f;" horiz-adv-x="1088" d="M812.912 86.443c0 5.755-2.976 10.709-7.931 13.685-4.96 2.779-10.709 2.779-15.664 0l-127.093-73.403 150.688-87.093v146.811z" />
<glyph unicode="&#xe940;" horiz-adv-x="1088" d="M642.395 132.101c0-12.347 6.421-22.997 17.115-29.381 10.699-5.963 23.104-5.963 33.803 0l274.251 157.552-325.168 186.933v-315.104z" />
<glyph unicode="&#xe941;" horiz-adv-x="1088" d="M367.934 441.853c6.097 3.52 9.523 9.723 9.627 16.825-0.106 6.98-3.642 13.106-9.634 16.687l-155.957 90.491 0.395-213.818 155.569 89.815z" />
<glyph unicode="&#xe942;" horiz-adv-x="462" d="M195.415 131.327c-30.273 8.113-51.837 34.758-53.715 66.56-1.023 19.473 5.642 38.135 18.668 52.59s30.724 23.069 50.143 24.127c7.613 0.462 15.3-0.346 23.062-2.425 30.273-8.11 51.837-34.758 53.715-66.56 1.127-19.083-5.642-38.135-18.668-52.59s-30.724-23.069-50.143-24.127c-7.612-0.462-15.299 0.346-23.062 2.425z" />
<glyph unicode="&#xe943;" horiz-adv-x="462" d="M167.478 473.607c-38.064 10.199-65.183 43.683-67.551 83.643-1.29 24.463 7.084 47.912 23.457 66.070 16.372 18.159 38.623 28.975 63.038 30.298 9.57 0.582 19.236-0.435 28.996-3.050 38.064-10.199 65.183-43.683 67.551-83.64 1.422-23.977-7.084-47.912-23.457-66.074-16.372-18.158-38.623-28.973-63.038-30.295-9.57-0.582-19.236 0.435-28.996 3.048z" />
<glyph unicode="&#xe944;" horiz-adv-x="462" d="M-162.837 269.499c-58.682 15.723-100.49 67.344-104.142 128.945-1.989 37.717 10.922 73.865 36.163 101.862 25.241 27.994 59.544 44.669 97.183 46.71 14.755 0.894 29.655-0.671 44.702-4.706 58.682-15.723 100.489-67.341 104.142-128.945 2.191-36.963-10.922-73.865-36.163-101.859-25.241-27.997-59.544-44.672-97.183-46.71-14.755-0.897-29.655 0.671-44.702 4.702z" />
<glyph unicode="&#xe945;" horiz-adv-x="462" d="M111.805 791.686c-18.503 4.958-31.686 21.234-32.838 40.659-0.627 11.893 3.444 23.291 11.403 32.118s18.775 14.085 30.643 14.728c4.652 0.283 9.351-0.212 14.095-1.483 18.503-4.958 31.686-21.234 32.837-40.659 0.691-11.655-3.444-23.291-11.403-32.118s-18.775-14.085-30.643-14.728c-4.652-0.283-9.351 0.212-14.095 1.483z" />
<glyph unicode="&#xe946;" horiz-adv-x="462" d="M-155.856 40.917c-11.255 3.017-19.394 11.456-22.607 22.751-2.825 11.192 0.201 22.483 8.243 30.761l210.484 211.119 91.090-341.588-287.21 76.958z" />
<glyph unicode="&#xe947;" horiz-adv-x="462" d="M-232.1 612.309c-11.255 3.014-19.394 11.456-22.607 22.751-2.825 11.191 0.201 22.483 8.243 30.761l210.484 211.118 91.090-341.587-287.21 76.958z" />
<glyph unicode="&#xe948;" horiz-adv-x="462" d="M234.721 310.599c-3.569 0.959-6.151 3.627-7.173 7.195-0.899 3.538 0.057 7.103 2.603 9.716l66.653 66.628 28.977-107.938-91.060 24.398z" />
<glyph unicode="&#xe949;" horiz-adv-x="462" d="M234.739 423.951c7.659-2.051 13.196-7.802 15.38-15.5 1.92-7.623-0.142-15.319-5.617-20.963l-143.303-143.922-61.906 232.753 195.447-52.368z" />
<glyph unicode="&#xe94a;" horiz-adv-x="462" d="M88.229 645.671c-3.197-3.197-7.614-4.291-12.036-3.176-4.312 1.226-7.523 4.437-8.749 8.75l-30.208 111.773 132.558-35.781-81.566-81.566z" />
<glyph unicode="&#xe94b;" horiz-adv-x="486" d="M265.645 130.79c30.293 8.116 51.871 34.78 53.75 66.605 1.024 19.483-5.646 38.16-18.68 52.623-13.033 14.466-30.744 23.084-50.175 24.141-7.617 0.465-15.31-0.341-23.077-2.423-30.293-8.12-51.871-34.78-53.75-66.605-1.128-19.094 5.646-38.16 18.68-52.626s30.744-23.084 50.176-24.141c7.617-0.465 15.309 0.344 23.077 2.426z" />
<glyph unicode="&#xe94c;" horiz-adv-x="486" d="M293.599 473.292c38.089 10.207 65.224 43.712 67.595 83.696 1.293 24.479-7.089 47.944-23.473 66.113-16.381 18.172-38.647 28.995-63.077 30.318-9.577 0.583-19.248-0.435-29.015-3.051-38.089-10.207-65.225-43.712-67.595-83.696-1.422-23.99 7.089-47.944 23.473-66.113 16.383-18.172 38.648-28.995 63.078-30.318 9.577-0.583 19.248 0.435 29.015 3.051z" />
<glyph unicode="&#xe94d;" horiz-adv-x="486" d="M624.126 269.051c58.718 15.735 100.554 67.388 104.209 129.030 1.991 37.74-10.929 73.912-36.187 101.926s-59.582 44.7-97.247 46.742c-14.765 0.897-29.675-0.674-44.73-4.706-58.721-15.735-100.554-67.388-104.209-129.030-2.193-36.988 10.929-73.912 36.187-101.926 25.256-28.013 59.582-44.7 97.244-46.742 14.765-0.897 29.675 0.674 44.733 4.706z" />
<glyph unicode="&#xe94e;" horiz-adv-x="486" d="M349.308 791.577c18.514 4.961 31.705 21.248 32.859 40.685 0.628 11.9-3.447 23.306-11.409 32.139-7.965 8.833-18.788 14.094-30.666 14.738-4.655 0.283-9.355-0.212-14.103-1.484-18.517-4.961-31.706-21.248-32.859-40.685-0.691-11.662 3.446-23.306 11.409-32.139 7.965-8.833 18.788-14.094 30.666-14.738 4.655-0.283 9.355 0.212 14.103 1.484z" />
<glyph unicode="&#xe94f;" horiz-adv-x="486" d="M617.146 40.321c11.264 3.018 19.408 11.463 22.622 22.767 2.827 11.198-0.199 22.498-8.246 30.78l-210.621 211.255-91.151-341.811 287.397 77.008z" />
<glyph unicode="&#xe950;" horiz-adv-x="486" d="M693.435 612.082c11.264 3.021 19.405 11.466 22.622 22.767 2.827 11.198-0.199 22.498-8.249 30.782l-210.621 211.255-91.148-341.809 287.397 77.005z" />
<glyph unicode="&#xe951;" horiz-adv-x="486" d="M226.311 310.18c3.571 0.955 6.155 3.628 7.177 7.198 0.9 3.537-0.057 7.108-2.605 9.72l-66.696 66.675-28.996-108.009 91.119 24.416z" />
<glyph unicode="&#xe952;" horiz-adv-x="486" d="M226.294 423.602c-7.664-2.054-13.204-7.805-15.39-15.508-1.921-7.63 0.142-15.33 5.621-20.978l143.397-144.015 61.944 232.907-195.573-52.405z" />
<glyph unicode="&#xe953;" horiz-adv-x="486" d="M372.899 645.469c3.199-3.199 7.618-4.295 12.043-3.178 4.313 1.226 7.527 4.44 8.754 8.754l30.228 111.846-132.644-35.805 81.619-81.617z" />
<glyph unicode="&#xe954;" d="M845.738 462.165c-20.794 20.794-52.559 25.814-79.287 12.42-16.302-8.303-28.34-22.474-33.974-39.84-5.637-17.369-4.331-35.79 3.918-52.063 3.197-6.404 7.457-12.274 12.791-17.604 20.794-20.794 52.559-25.818 79.287-12.42 16.034 8.035 28.34 22.474 33.974 39.84 5.637 17.365 4.331 35.79-3.918 52.063-3.197 6.404-7.457 12.274-12.791 17.604z" />
<glyph unicode="&#xe955;" d="M554.501 324.289c-26.146 26.142-66.075 32.472-99.656 15.649-20.487-10.429-35.608-28.233-42.683-50.058-7.075-21.822-5.427-44.978 4.952-65.436 4.018-8.049 9.38-15.428 16.084-22.132 26.142-26.142 66.075-32.472 99.656-15.649 20.148 10.090 35.608 28.233 42.683 50.058 7.072 21.822 5.423 44.978-4.956 65.436-4.018 8.049-9.377 15.428-16.081 22.132z" />
<glyph unicode="&#xe956;" d="M565.391 688.45c-40.307 40.307-101.865 50.063-153.636 24.129-31.58-16.078-54.896-43.529-65.804-77.172s-8.363-69.34 7.637-100.884c6.193-12.409 14.456-23.78 24.793-34.117 40.307-40.307 101.865-50.062 153.636-24.13 31.066 15.56 54.9 43.529 65.807 77.175 10.904 33.642 8.363 69.34-7.639 100.882-6.194 12.41-14.457 23.782-24.794 34.118z" />
<glyph unicode="&#xe957;" d="M269.918 220.301c-12.709 12.709-32.12 15.785-48.444 7.607-9.958-5.070-17.31-13.722-20.749-24.333-3.439-10.607-2.637-21.864 2.408-31.808 1.953-3.914 4.559-7.5 7.818-10.757 12.71-12.709 32.12-15.788 48.444-7.61 9.794 4.906 17.31 13.726 20.749 24.333 3.439 10.611 2.637 21.864-2.408 31.812-1.953 3.914-4.559 7.5-7.818 10.757z" />
<glyph unicode="&#xe958;" d="M754.406 790.016c-7.732 7.731-18.407 10.384-29.093 7.696-10.418-2.954-18.175-10.711-21.129-21.129l-72.8-270.080 320.301 86.234-197.279 197.279z" />
<glyph unicode="&#xe959;" d="M254.336 583.907c-7.731 7.732-18.408 10.383-29.093 7.696-10.419-2.954-18.175-10.711-21.129-21.129l-72.803-270.083 320.302 86.237-197.277 197.279z" />
<glyph unicode="&#xe95a;" d="M718.505 346.121c-2.451 2.451-5.83 3.297-9.212 2.451-3.293-0.928-5.744-3.375-6.672-6.672l-22.874-85.42 101.305 27.095-62.546 62.546z" />
<glyph unicode="&#xe95b;" d="M626.406 292.926c5.263-5.259 12.531-7.061 19.809-5.227 7.097 2.019 12.384 7.304 14.4 14.4l49.719 183.967-218.176-58.892 134.247-134.247z" />
<glyph unicode="&#xe95c;" d="M377.506 307.962c1.099 4.096-0.086 8.199-3.065 11.268-3.022 2.929-7.136 4.032-11.218 3.008l-104.995-27.894 91.264-90.925 28.013 104.544z" />
<glyph unicode="&#xe95d;" horiz-adv-x="1106" d="M660.166 794.939c15.828-27.409 12.195-61.831-9.17-85.881-13.173-14.633-31.26-23.201-50.881-24.223s-38.413 5.467-53.032 18.578c-5.763 5.104-10.677 11.169-14.737 18.197-15.823 27.409-12.195 61.831 9.175 85.881 12.818 14.43 31.26 23.201 50.881 24.222s38.408-5.466 53.032-18.578c5.763-5.104 10.677-11.169 14.732-18.197z" />
<glyph unicode="&#xe95e;" horiz-adv-x="1106" d="M435.717 530.59c19.896-34.461 15.352-77.732-11.488-107.953-16.547-18.391-39.27-29.156-63.926-30.432s-48.267 6.89-66.644 23.377c-7.249 6.422-13.424 14.048-18.526 22.883-19.896 34.462-15.352 77.733 11.488 107.956 16.104 18.134 39.27 29.152 63.926 30.428s48.267-6.889 66.645-23.377c7.249-6.418 13.424-14.046 18.526-22.882z" />
<glyph unicode="&#xe95f;" horiz-adv-x="1106" d="M817.306 440.477c30.674-53.13 23.67-119.839-17.706-166.433-25.513-28.353-60.545-44.943-98.556-46.908s-74.412 10.621-102.745 36.041c-11.171 9.895-20.696 21.653-28.559 35.274-30.674 53.13-23.665 119.839 17.712 166.432 24.828 27.957 60.539 44.943 98.551 46.909s74.412-10.62 102.745-36.039c11.177-9.895 20.696-21.654 28.559-35.276z" />
<glyph unicode="&#xe960;" horiz-adv-x="1106" d="M248.35 263.721c9.672-16.754 7.463-37.79-5.585-52.481-8.044-8.938-19.090-14.171-31.075-14.789-11.986-0.623-23.463 3.35-32.397 11.362-3.524 3.123-6.525 6.828-9.006 11.125-9.672 16.749-7.463 37.785 5.585 52.476 7.828 8.815 19.089 14.171 31.075 14.794 11.986 0.617 23.463-3.35 32.397-11.367 3.524-3.118 6.525-6.823 9.006-11.12z" />
<glyph unicode="&#xe961;" horiz-adv-x="1106" d="M975.543 608.674c5.887-10.19 5.671-22.028-0.103-32.387-5.974-10.007-16.194-15.91-27.849-16.079l-301.035-0.452 178.86 308.946 150.127-260.028z" />
<glyph unicode="&#xe962;" horiz-adv-x="1106" d="M621.99 146.244c5.887-10.194 5.671-22.029-0.103-32.387-5.974-10.008-16.194-15.911-27.849-16.080l-301.037-0.453 178.863 308.944 150.126-260.024z" />
<glyph unicode="&#xe963;" horiz-adv-x="1106" d="M504.095 694.997c1.865-3.23 1.804-6.98-0.015-10.258-1.883-3.167-5.112-5.031-8.796-5.078l-95.168 0.016 56.382 97.763 47.597-82.442z" />
<glyph unicode="&#xe964;" horiz-adv-x="1106" d="M423.145 614.074c-4.003 6.934-3.851 14.993 0.085 22.048 4.073 6.816 11.041 10.838 18.981 10.958l205.086 0.442-121.99-210.394-102.162 176.947z" />
<glyph unicode="&#xe965;" horiz-adv-x="1106" d="M369.446 351.147c4.565 0 8.5-2.372 10.861-6.329 2.203-3.952 2.203-8.537 0-12.494l-58.24-101.376-69.101 120.199h116.481z" />
</font>
</defs>
</svg>
